<svg xmlns="http://www.w3.org/2000/svg" width="24px" height="24px" viewBox="0 0 24 24" fill="none">
<path d="M9.02056 17.1314C9.02056 17.204 8.9371 17.2621 8.83185 17.2621C8.7121 17.273 8.62863 17.2149 8.62863 17.1314C8.62863 17.0589 8.7121 17.0008 8.81734 17.0008C8.92621 16.9899 9.02056 17.048 9.02056 17.1314ZM7.89194 16.9681C7.86653 17.0407 7.93911 17.1242 8.04798 17.146C8.14234 17.1822 8.25121 17.146 8.27298 17.0734C8.29476 17.0008 8.22581 16.9173 8.11694 16.8847C8.02258 16.8593 7.91734 16.8956 7.89194 16.9681ZM9.49597 16.9064C9.39073 16.9318 9.31814 17.0008 9.32903 17.0843C9.33992 17.1568 9.43427 17.204 9.54315 17.1786C9.64839 17.1532 9.72097 17.0843 9.71008 17.0117C9.69919 16.9427 9.60121 16.8956 9.49597 16.9064ZM11.8839 3C6.8504 3 3 6.82137 3 11.8548C3 15.8794 5.53306 19.3234 9.15121 20.5355C9.61573 20.6189 9.77903 20.3322 9.77903 20.0964C9.77903 19.8714 9.76815 18.6302 9.76815 17.8681C9.76815 17.8681 7.22782 18.4125 6.69435 16.7867C6.69435 16.7867 6.28065 15.7306 5.68548 15.4585C5.68548 15.4585 4.85444 14.8887 5.74355 14.8996C5.74355 14.8996 6.64718 14.9722 7.14435 15.8359C7.93911 17.2367 9.27097 16.8339 9.78992 16.5943C9.87339 16.0137 10.1093 15.6109 10.3706 15.3714C8.34194 15.1464 6.29516 14.8524 6.29516 11.3613C6.29516 10.3633 6.57097 9.8625 7.15161 9.22379C7.05726 8.9879 6.74879 8.01532 7.24597 6.75968C8.00444 6.52379 9.75 7.73951 9.75 7.73951C10.4758 7.53629 11.256 7.43105 12.029 7.43105C12.802 7.43105 13.5823 7.53629 14.3081 7.73951C14.3081 7.73951 16.0536 6.52016 16.8121 6.75968C17.3093 8.01895 17.0008 8.9879 16.9065 9.22379C17.4871 9.86612 17.8427 10.3669 17.8427 11.3613C17.8427 14.8633 15.7052 15.1427 13.6766 15.3714C14.0105 15.6581 14.2935 16.2024 14.2935 17.0552C14.2935 18.2782 14.2827 19.7915 14.2827 20.0891C14.2827 20.325 14.4496 20.6117 14.9105 20.5282C18.5395 19.3234 21 15.8794 21 11.8548C21 6.82137 16.9173 3 11.8839 3ZM6.52742 15.5165C6.48024 15.5528 6.49113 15.6363 6.55282 15.7052C6.61089 15.7633 6.69435 15.7887 6.74153 15.7415C6.78871 15.7052 6.77782 15.6218 6.71613 15.5528C6.65806 15.4948 6.5746 15.4693 6.52742 15.5165ZM6.13548 15.2226C6.11008 15.2697 6.14637 15.3278 6.21895 15.3641C6.27702 15.4004 6.3496 15.3895 6.375 15.3387C6.4004 15.2915 6.36411 15.2335 6.29153 15.1972C6.21895 15.1754 6.16089 15.1863 6.13548 15.2226ZM7.31129 16.5145C7.25323 16.5617 7.275 16.6706 7.35847 16.7395C7.44194 16.823 7.54718 16.8339 7.59435 16.7758C7.64153 16.7286 7.61976 16.6197 7.54718 16.5508C7.46734 16.4673 7.35847 16.4564 7.31129 16.5145ZM6.89758 15.981C6.83952 16.0173 6.83952 16.1117 6.89758 16.1952C6.95565 16.2786 7.05363 16.3149 7.10081 16.2786C7.15887 16.2314 7.15887 16.1371 7.10081 16.0536C7.05 15.9702 6.95565 15.9339 6.89758 15.981Z" fill="currentColor"></path>
</svg>